<svg width="39" height="16" viewBox="0 0 39 16" fill="none" xmlns="http://www.w3.org/2000/svg">
<mask id="path-1-outside-1_60_3" maskUnits="userSpaceOnUse" x="9" y="0" width="24" height="14" fill="black">
<rect fill="white" x="9" width="24" height="14"/>
<path fill-rule="evenodd" clip-rule="evenodd" d="M27.9999 12L20.9999 4L14 12H27.9999Z"/>
</mask>
<path fill-rule="evenodd" clip-rule="evenodd" d="M27.9999 12L20.9999 4L14 12H27.9999Z" fill="#EBE9DE"/>
<path d="M20.9999 4L22.5051 2.683L20.9999 0.962803L19.4948 2.683L20.9999 4ZM27.9999 12V14H32.4074L29.5051 10.683L27.9999 12ZM14 12L12.4948 10.683L9.59249 14H14V12ZM19.4948 5.317L26.4947 13.317L29.5051 10.683L22.5051 2.683L19.4948 5.317ZM15.5052 13.317L22.5051 5.317L19.4948 2.683L12.4948 10.683L15.5052 13.317ZM14 14H27.9999V10H14V14Z" fill="#130627" mask="url(#path-1-outside-1_60_3)"/>
<rect y="12" width="39" height="4" fill="#EBE9DE"/>
</svg>
