<svg width="32" height="32" viewBox="0 0 32 32" fill="none" xmlns="http://www.w3.org/2000/svg">
<g clip-path="url(#clip0_32_2611)">
<path d="M5.12006 8.95996L2.56006 31.36H29.4401L26.8801 8.95996H5.12006Z" stroke="black" stroke-width="2" stroke-miterlimit="10" stroke-linecap="round"/>
<path d="M21.76 12.16C21.76 11.3658 21.76 7.83427 21.76 7.04003C21.76 3.85859 19.1814 1.28003 16 1.28003C12.8186 1.28003 10.24 3.85859 10.24 7.04003C10.24 7.83427 10.24 11.3658 10.24 12.16" stroke="black" stroke-width="2" stroke-miterlimit="10" stroke-linecap="round"/>
<path d="M21.76 13.4399C22.4669 13.4399 23.04 12.8668 23.04 12.1599C23.04 11.453 22.4669 10.8799 21.76 10.8799C21.0531 10.8799 20.48 11.453 20.48 12.1599C20.48 12.8668 21.0531 13.4399 21.76 13.4399Z" fill="black"/>
<path d="M10.24 13.4399C10.9469 13.4399 11.52 12.8668 11.52 12.1599C11.52 11.453 10.9469 10.8799 10.24 10.8799C9.53304 10.8799 8.95996 11.453 8.95996 12.1599C8.95996 12.8668 9.53304 13.4399 10.24 13.4399Z" fill="black"/>
</g>
<defs>
<clipPath id="clip0_32_2611">
<rect width="32" height="32" fill="white"/>
</clipPath>
</defs>
</svg>
